<svg width="44px" height="48px" viewBox="0 0 73 79" version="1.1" xmlns="http://www.w3.org/2000/svg">
    <path fill="#47848F" d="M25.5094119,16.8060461 C15.3195099,14.9501247 7.26275809,16.8925962 4.05171925,22.4542786 C1.65557016,26.6045306 2.34048994,32.1070732 5.71278649,37.9889533 C5.99981871,38.4895881 6.63834901,38.6627473 7.13898381,38.3757151 C7.63961861,38.0886828 7.81277774,37.4501525 7.52574553,36.9495177 C4.48794221,31.6510528 3.89683005,26.9021464 5.86153561,23.4991765 C8.52895927,18.8790632 15.7154423,17.1464123 25.1349505,18.8620193 C25.7026918,18.965424 26.2467632,18.5890047 26.3501678,18.0212634 C26.4535724,17.4535221 26.0771532,16.9094508 25.5094119,16.8060461 L25.5094119,16.8060461 L25.5094119,16.8060461 Z M11.0118746,45.1383381 C15.1321026,49.6661634 20.4849669,53.9130358 26.5896075,57.4375518 C41.3710286,65.9716091 57.1068954,68.2526595 64.8621834,62.9646618 C65.3389751,62.639558 65.4619423,61.9894936 65.1368391,61.5127019 C64.8117352,61.0359103 64.1616703,60.9129425 63.6848786,61.2380463 C56.7439877,65.9707418 41.7960535,63.8039092 27.6345055,55.6277352 C21.7123178,52.208559 16.5289868,48.0961911 12.5575146,43.7318374 C12.1691201,43.3050207 11.5082609,43.2738733 11.0814443,43.6622678 C10.6546276,44.0506622 10.6234802,44.7115213 11.0118746,45.1383381 L11.0118746,45.1383381 L11.0118746,45.1383381 Z"></path>
    <path fill="#47848F" d="M62.388258,43.8671979 C69.0603593,35.9851519 71.3900262,28.0575866 68.1855995,22.5073565 C65.8277219,18.4233925 60.8431015,16.2672309 54.2186198,16.1810789 C53.6415875,16.1735745 53.1677268,16.6352682 53.1602223,17.2123006 C53.1527178,17.7893331 53.6144118,18.2631938 54.1914441,18.2706981 C60.14933,18.348181 64.443683,20.2057586 66.3757829,23.5522545 C69.0374426,28.1623839 66.9598981,35.232008 60.7932035,42.5169946 C60.4203551,42.9574567 60.4751668,43.6167751 60.9156289,43.9896234 C61.356091,44.3624717 62.0154096,44.3076599 62.388258,43.8671979 L62.388258,43.8671979 L62.388258,43.8671979 Z M45.2410357,17.1539843 C39.2083564,18.4465122 32.7871134,20.9736647 26.6202521,24.5341037 C11.361226,33.3439065 1.40741722,46.3342765 2.78983495,55.753472 C2.87363314,56.3244366 3.40442327,56.7193631 3.97538788,56.6355649 C4.54635249,56.5517667 4.94127889,56.0209763 4.8574807,55.4500117 C3.63003956,47.0867598 13.065275,34.7731619 27.6651501,26.3439201 C33.6474955,22.8900113 39.8649735,20.4430528 45.6788475,19.1974049 C46.2431225,19.0765065 46.6025503,18.5210637 46.4816519,17.9567887 C46.3607535,17.3925137 45.8053107,17.0330859 45.2410357,17.1539843 L45.2410357,17.1539843 L45.2410357,17.1539843 Z"></path>
    <path fill="#47848F" d="M20.5208313,62.28374 C24.0093171,72.0248472 29.7164771,78.0223869 36.1339817,78.0223869 C40.8143879,78.0223869 45.1446812,74.8318976 48.5214187,69.2148046 C48.8187441,68.7202137 48.6588286,68.0782383 48.1642375,67.7809131 C47.6696465,67.4835879 47.0276714,67.6435033 46.730346,68.1380942 C43.6956772,73.1861671 39.9680917,75.932591 36.1339817,75.932591 C30.8031213,75.932591 25.7128381,70.5833148 22.4882699,61.5791606 C22.2937058,61.0358674 21.6955542,60.7531666 21.152261,60.9477308 C20.6089678,61.142295 20.3262671,61.7404468 20.5208313,62.28374 L20.5208313,62.28374 L20.5208313,62.28374 Z M52.385594,60.3782708 C54.1915162,54.6072268 55.1614407,47.9497966 55.1614407,41.0123667 C55.1614407,23.701502 49.1027183,8.77888585 40.4728694,4.94697059 C39.9454448,4.71277811 39.3280323,4.9504896 39.0938398,5.47791407 C38.8596473,6.00533859 39.0973588,6.62275114 39.6247833,6.85694365 C47.3215653,10.2745488 53.0716447,24.4369784 53.0716447,41.0123667 C53.0716447,47.7428033 52.1323478,54.19001 50.391169,59.754159 C50.2188253,60.3049044 50.5255804,60.8910838 51.0763257,61.0634271 C51.627071,61.235771 52.2132506,60.9290162 52.385594,60.3782708 L52.385594,60.3782708 L52.385594,60.3782708 Z"></path>
    <path fill="#47848F" d="M72.0650486,59.3545791 C72.0650486,56.5925695 69.8259968,54.3535177 67.0639872,54.3535177 C64.3019771,54.3535177 62.0629253,56.5925695 62.0629253,59.3545791 C62.0629253,62.1165892 64.3019771,64.3556404 67.0639872,64.3556404 C69.8259968,64.3556404 72.0650486,62.1165892 72.0650486,59.3545791 L72.0650486,59.3545791 L72.0650486,59.3545791 Z M69.9752526,59.3545791 C69.9752526,60.9624268 68.6718344,62.2658445 67.0639872,62.2658445 C65.4561395,62.2658445 64.1527212,60.9624268 64.1527212,59.3545791 C64.1527212,57.7467319 65.4561395,56.4433136 67.0639872,56.4433136 C68.6718344,56.4433136 69.9752526,57.7467319 69.9752526,59.3545791 L69.9752526,59.3545791 L69.9752526,59.3545791 Z"></path>
    <path fill="#47848F" d="M5.13204726,64.3556404 C7.89405722,64.3556404 10.1331087,62.1165892 10.1331087,59.3545791 C10.1331087,56.5925695 7.89405722,54.3535177 5.13204726,54.3535177 C2.37003728,54.3535177 0.130985816,56.5925695 0.130985816,59.3545791 C0.130985816,62.1165892 2.37003728,64.3556404 5.13204726,64.3556404 L5.13204726,64.3556404 L5.13204726,64.3556404 Z M5.13204726,62.2658445 C3.5241997,62.2658445 2.22078174,60.9624268 2.22078174,59.3545791 C2.22078174,57.7467319 3.5241997,56.4433136 5.13204726,56.4433136 C6.7398948,56.4433136 8.04331274,57.7467319 8.04331274,59.3545791 C8.04331274,60.9624268 6.7398948,62.2658445 5.13204726,62.2658445 L5.13204726,62.2658445 L5.13204726,62.2658445 Z"></path>
    <path fill="#47848F" d="M36.1339817,10.0483057 C38.8959916,10.0483057 41.1350431,7.80925424 41.1350431,5.04724433 C41.1350431,2.28523435 38.8959916,0.0461828812 36.1339817,0.0461828812 C33.3719717,0.0461828812 31.1329203,2.28523435 31.1329203,5.04724433 C31.1329203,7.80925424 33.3719717,10.0483057 36.1339817,10.0483057 L36.1339817,10.0483057 L36.1339817,10.0483057 Z M36.1339817,7.95850982 C34.5261341,7.95850982 33.2227162,6.65509183 33.2227162,5.04724433 C33.2227162,3.43939676 34.5261341,2.1359788 36.1339817,2.1359788 C37.7418292,2.1359788 39.0452472,3.43939676 39.0452472,5.04724433 C39.0452472,6.65509183 37.7418292,7.95850982 36.1339817,7.95850982 L36.1339817,7.95850982 L36.1339817,7.95850982 Z"></path>
    <path fill="#47848F" d="M36.8978565,44.5490574 C34.9444998,44.9711146 33.0200511,43.7297213 32.597168,41.7763646 C32.1759367,39.8230079 33.4165041,37.8985593 35.3698608,37.4756761 C37.3232174,37.0536189 39.2476661,38.2950122 39.6705493,40.2483689 C40.0926064,42.2017255 38.8512132,44.1261742 36.8978565,44.5490574 L36.8978565,44.5490574 L36.8978565,44.5490574 Z"></path>
</svg>
