<svg width="24px" height="24px" viewBox="0 0 131 130" version="1.1" xmlns="http://www.w3.org/2000/svg">
    <path d="M120.763599,0 L10.342566,0 C5.065996,0 0.779234,4.18238313 0.779234,9.33927592 L0.779234,120.224619 C0.779234,125.386011 5.065996,129.574692 10.342566,129.574692 L120.763599,129.574692 C126.049167,129.574692 130.355726,125.386011 130.355726,120.224619 L130.355726,9.33927592 C130.355726,4.18238313 126.049167,0 120.763599,0" fill="#006087"></path>
    <path d="M29.603304,17.8390158 C35.749104,17.8390158 40.741329,22.8321406 40.741329,28.9788401 C40.741329,35.1300387 35.749104,40.1249631 29.603304,40.1249631 C23.444907,40.1249631 18.458981,35.1300387 18.458981,28.9788401 C18.458981,22.8321406 23.444907,17.8390158 29.603304,17.8390158 L29.603304,17.8390158 L29.603304,17.8390158 Z M19.990482,48.5779121 L39.208928,48.5779121 L39.208928,110.414735 L19.990482,110.414735 L19.990482,48.5779121 L19.990482,48.5779121 Z" fill="#FFFFFF"></path>
    <path d="M51.262974,48.5779121 L69.699473,48.5779121 L69.699473,57.026362 L69.955023,57.026362 C72.519522,52.1655114 78.789497,47.0392127 88.138671,47.0392127 C107.60007,47.0392127 111.193069,59.8464112 111.193069,76.4958594 L111.193069,110.414735 L91.98812,110.414735 L91.98812,80.3435079 C91.98812,73.1692091 91.855845,63.9460105 82.00097,63.9460105 C71.999424,63.9460105 70.467923,71.7582847 70.467923,79.8243093 L70.467923,110.414735 L51.262974,110.414735 L51.262974,48.5779121" fill="#FFFFFF"></path>
</svg>
